<svg xmlns="http://www.w3.org/2000/svg" xmlns:se="http://svg-edit.googlecode.com" xmlns:xlink="http://www.w3.org/1999/xlink" xmlns:dc="http://purl.org/dc/elements/1.1/" xmlns:cc="http://creativecommons.org/ns#" xmlns:rdf="http://www.w3.org/1999/02/22-rdf-syntax-ns#" xmlns:inkscape="http://www.inkscape.org/namespaces/inkscape" width="16" height="16.469135284423828" style="">                                    <title>my vector image</title>                                    <!-- Created with Vector Paint - http://www.vectorpaint.yaks.com/ https://chrome.google.com/webstore/detail/hnbpdiengicdefcjecjbnjnoifekhgdo -->                                    <rect id="backgroundrect" width="9.952751159667969" height="9.190671920776367" x="6.790123462677002" y="1.2345678806304932" fill="#FFFFFF" stroke="none" class="" style="" opacity="0"/>                                <g class="currentLayer" style=""><title>Layer 1</title><image id="svg_6" x="-22" y="-19" width="0" height="0" style="color: rgb(0, 0, 0);" xlink:href="logo/vector_paint_icon256.png"/><path fill="#000000" fill-opacity="1" stroke="#000000" stroke-opacity="1" stroke-width="1" stroke-dasharray="none" stroke-linejoin="round" stroke-linecap="butt" stroke-dashoffset="" fill-rule="nonzero" opacity="1" marker-start="" marker-mid="" marker-end="" d="M0.44394662976265,11.470850665745136 C0.44394662976265,10.274210701312668 1.413225000952946,9.304932330122377 2.6098649653854094,9.304932330122377 C3.806504929817878,9.304932330122377 4.775783301008169,10.274210701312668 4.775783301008169,11.470850665745136 C4.775783301008169,12.6674906301776 3.806504929817878,13.636769001367895 2.6098649653854094,13.636769001367895 C1.413225000952946,13.636769001367895 0.44394662976265,12.6674906301776 0.44394662976265,11.470850665745136 z" class="" id="svg_8"/><path fill="#000000" fill-opacity="1" stroke="#000000" stroke-opacity="1" stroke-width="1" stroke-dasharray="none" stroke-linejoin="round" stroke-linecap="butt" stroke-dashoffset="" fill-rule="nonzero" opacity="1" marker-start="" marker-mid="" marker-end="" d="M6.094170540571213,2.9506695910066334 C6.094170540571213,1.754029626574166 7.063448911761508,0.784751255383874 8.260088876193976,0.784751255383874 C9.45672884062644,0.784751255383874 10.426007211816732,1.754029626574166 10.426007211816732,2.9506695910066334 C10.426007211816732,4.147309555439094 9.45672884062644,5.116587926629393 8.260088876193976,5.116587926629393 C7.063448911761508,5.116587926629393 6.094170540571213,4.147309555439094 6.094170540571213,2.9506695910066334 z" class="" id="svg_5"/><path fill="#000000" fill-opacity="1" stroke="#000000" stroke-opacity="1" stroke-width="1" stroke-dasharray="none" stroke-linejoin="round" stroke-linecap="butt" stroke-dashoffset="" fill-rule="nonzero" opacity="1" marker-start="" marker-mid="" marker-end="" d="M11.654708564281464,11.381163571652767 C11.654708564281464,10.1845236072203 12.623986935471759,9.215245236030007 13.820626899904223,9.215245236030007 C15.01726686433669,9.215245236030007 15.986545235526982,10.1845236072203 15.986545235526982,11.381163571652767 C15.986545235526982,12.577803536085227 15.01726686433669,13.547081907275526 13.820626899904223,13.547081907275526 C12.623986935471759,13.547081907275526 11.654708564281464,12.577803536085227 11.654708564281464,11.381163571652767 z" class="" id="svg_3"/><path fill="none" fill-opacity="1" stroke="#000000" stroke-opacity="1" stroke-width="1" stroke-dasharray="none" stroke-linejoin="round" stroke-linecap="butt" stroke-dashoffset="" fill-rule="nonzero" opacity="1" marker-start="" marker-mid="" marker-end="" d="M2.542602281656425,8.60849606307885 C2.542602281656425,5.617376767237411 4.9992454473870325,3.1945701376058464 8.032138244585315,3.1945701376058464 C11.065031041783596,3.1945701376058464 13.521674207514202,5.617376767237411 13.521674207514202,8.60849606307885 C13.521674207514202,11.599615358920286 11.065031041783596,14.02242198855185 8.032138244585315,14.02242198855185 C4.9992454473870325,14.02242198855185 2.542602281656425,11.599615358920286 2.542602281656425,8.60849606307885 z" id="svg_4" class=""/></g></svg>