<svg xmlns="http://www.w3.org/2000/svg" xmlns:se="http://svg-edit.googlecode.com" xmlns:xlink="http://www.w3.org/1999/xlink" xmlns:dc="http://purl.org/dc/elements/1.1/" xmlns:cc="http://creativecommons.org/ns#" xmlns:rdf="http://www.w3.org/1999/02/22-rdf-syntax-ns#" xmlns:inkscape="http://www.inkscape.org/namespaces/inkscape" width="16" height="16" style="">                                    <title>my vector image</title>                                    <!-- Created with Vector Paint - http://www.vectorpaint.yaks.com/ https://chrome.google.com/webstore/detail/hnbpdiengicdefcjecjbnjnoifekhgdo -->                                    <rect id="backgroundrect" width="9.952751159667969" height="9.190671920776367" x="6.790123462677002" y="1.2345678806304932" fill="#FFFFFF" stroke="none" class="" style="" opacity="0"/>                                <g class="currentLayer" style=""><title>Layer 1</title><image id="svg_6" x="-22" y="-19" width="0" height="0" style="color: rgb(0, 0, 0);" xlink:href="logo/vector_paint_icon256.png"/><path fill="#000000" fill-opacity="1" stroke="#000000" stroke-opacity="1" stroke-width="1" stroke-dasharray="none" stroke-linejoin="round" stroke-linecap="butt" stroke-dashoffset="" fill-rule="nonzero" opacity="1" marker-start="" marker-mid="" marker-end="" d="M1.699552088975907,12.905828316387531 C1.699552088975907,11.709188351955063 2.6688304601662027,10.739909980764772 3.865470424598666,10.739909980764772 C5.062110389031135,10.739909980764772 6.031388760221426,11.709188351955063 6.031388760221426,12.905828316387531 C6.031388760221426,14.102468280819995 5.062110389031135,15.07174665201029 3.865470424598666,15.07174665201029 C2.6688304601662027,15.07174665201029 1.699552088975907,14.102468280819995 1.699552088975907,12.905828316387531 z" class="" id="svg_8"/><path fill="#000000" fill-opacity="1" stroke="#000000" stroke-opacity="1" stroke-width="1" stroke-dasharray="none" stroke-linejoin="round" stroke-linecap="butt" stroke-dashoffset="" fill-rule="nonzero" opacity="1" marker-start="" marker-mid="" marker-end="" d="M10.30941740423441,5.103136022266742 C10.30941740423441,3.906496057834276 11.278695775424705,2.937217686643983 12.475335739857172,2.937217686643983 C13.671975704289636,2.937217686643983 14.641254075479928,3.906496057834276 14.641254075479928,5.103136022266742 C14.641254075479928,6.299775986699203 13.671975704289636,7.269054357889502 12.475335739857172,7.269054357889502 C11.278695775424705,7.269054357889502 10.30941740423441,6.299775986699203 10.30941740423441,5.103136022266742 z" class="" id="svg_5"/><path fill="none" fill-opacity="1" stroke="#000000" stroke-opacity="1" stroke-width="1" stroke-dasharray="none" stroke-linejoin="round" stroke-linecap="butt" stroke-dashoffset="" fill-rule="nonzero" opacity="1" marker-start="" marker-mid="" marker-end="" d="M2.6322883848215746,8.698182166243999 C2.6322883848215746,5.70706287040256 5.088931550552182,3.284256240770996 8.121824347750465,3.284256240770996 C11.154717144948746,3.284256240770996 13.611360310679352,5.70706287040256 13.611360310679352,8.698182166243999 C13.611360310679352,11.689301462085435 11.154717144948746,14.112108091717 8.121824347750465,14.112108091717 C5.088931550552182,14.112108091717 2.6322883848215746,11.689301462085435 2.6322883848215746,8.698182166243999 z" id="svg_4" class=""/></g></svg>